<?xml version="1.0" encoding="UTF-8"?>
<!DOCTYPE svg PUBLIC "-//W3C//DTD SVG 1.1//EN" "http://www.w3.org/Graphics/SVG/1.1/DTD/svg11.dtd">
<svg xmlns="http://www.w3.org/2000/svg" xmlns:xlink="http://www.w3.org/1999/xlink" version="1.1" width="284" height="280" viewBox="-0.5 -0.5 284 280"><defs><radialGradient x1="0%" y1="0%" x2="0%" y2="0%" id="mx-gradient-ff6666-1-ffffff-1-r-0"><stop offset="0%" style="stop-color: rgb(255, 102, 102); stop-opacity: 1;"/><stop offset="100%" style="stop-color: rgb(255, 255, 255); stop-opacity: 1;"/></radialGradient><radialGradient x1="0%" y1="0%" x2="0%" y2="0%" id="mx-gradient-97d077-1-ffffff-1-r-0"><stop offset="0%" style="stop-color: rgb(151, 208, 119); stop-opacity: 1;"/><stop offset="100%" style="stop-color: rgb(255, 255, 255); stop-opacity: 1;"/></radialGradient><radialGradient x1="0%" y1="0%" x2="0%" y2="0%" id="mx-gradient-99ccff-1-ffffff-1-r-0"><stop offset="0%" style="stop-color: rgb(153, 204, 255); stop-opacity: 1;"/><stop offset="100%" style="stop-color: rgb(255, 255, 255); stop-opacity: 1;"/></radialGradient><filter id="dropShadow"><feGaussianBlur in="SourceAlpha" stdDeviation="1.7" result="blur"/><feOffset in="blur" dx="3" dy="3" result="offsetBlur"/><feFlood flood-color="#3D4574" flood-opacity="0.4" result="offsetColor"/><feComposite in="offsetColor" in2="offsetBlur" operator="in" result="offsetBlur"/><feBlend in="SourceGraphic" in2="offsetBlur"/></filter></defs><g filter="url(#dropShadow)"><g data-cell-id="0"><g data-cell-id="1"><g data-cell-id="1YbNKV7ilaDfTkEWuPSu-1"><g style="filter: drop-shadow(rgba(0, 0, 0, 0.25) 2px 3px 2px);"><ellipse cx="95" cy="159.22" rx="50" ry="92.22" fill="url(#mx-gradient-ff6666-1-ffffff-1-r-0)" stroke="none" transform="rotate(-30,95,159.22)" pointer-events="all"/></g></g><g data-cell-id="1YbNKV7ilaDfTkEWuPSu-4"><g style="filter: drop-shadow(rgba(0, 0, 0, 0.25) 2px 3px 2px);"><path d="M 45 217 Q 185 217 235 197 Q 285 177 255 167 Q 225 157 190 162 Q 155 167 145 162 Q 135 157 173.26 164.65" fill="none" stroke="none" pointer-events="stroke"/><ellipse cx="45" cy="217" rx="0" ry="0" fill="none" stroke="none" pointer-events="all"/><path d="M 180.61 166.12 L 169.83 169.06 L 173.26 164.65 L 171.79 159.26 Z" fill="none" stroke="none" pointer-events="all"/><path d="M 45 217 C 138.56 213.99 205.62 207.98 235 197 M 45 217 C 139.88 215.08 197.19 207.53 235 197 M 235 197 C 265.48 180 272.27 173.03 255 167 M 235 197 C 268.28 184.01 272.78 172.55 255 167 M 255 167 C 235.67 163.23 217.07 162.59 190 162 M 255 167 C 236 155.9 215.78 159.56 190 162 M 190 162 C 163.39 168.82 155.42 169.01 145 162 M 190 162 C 170.14 164.98 153.65 163.15 145 162 M 145 162 C 135.54 157.6 151.52 156.47 173.26 164.65 M 145 162 C 137.56 157.24 148.05 159.96 173.26 164.65" fill="none" stroke="rgb(0, 0, 0)" stroke-width="4" stroke-linejoin="round" stroke-linecap="round" stroke-miterlimit="10" stroke-dasharray="4 16" pointer-events="stroke"/><path d="M 43.1 215.72 C 43.1 215.72 43.1 215.72 43.1 215.72 M 43.1 215.72 C 43.1 215.72 43.1 215.72 43.1 215.72" fill="none" stroke="rgb(0, 0, 0)" stroke-width="2" stroke-linejoin="round" stroke-linecap="round" stroke-miterlimit="10" pointer-events="all"/><path d="M 43.78 215.57 C 43.61 215.67 43.02 215.4 43.17 215.64 C 43.32 215.87 44.35 216.91 44.68 216.98 C 45.01 217.04 45.18 215.97 45.15 216.03 C 45.12 216.09 44.3 216.86 44.52 217.34 C 44.73 217.81 46.04 218.85 46.45 218.87 C 46.85 218.88 47.53 217.57 46.96 217.44 C 46.4 217.3 43.34 218.41 43.07 218.07 C 42.81 217.72 44.77 215.22 45.39 215.36 C 46 215.5 46.5 218.35 46.74 218.88 C 46.98 219.4 47.15 218.68 46.84 218.51 M 47.82 214.69 C 48.09 214.67 44.94 215.64 44.5 216.07 C 44.06 216.5 45.1 217.6 45.19 217.27 C 45.29 216.93 45.56 214.61 45.05 214.06 C 44.54 213.52 42.06 213.12 42.14 214.01 C 42.22 214.9 44.66 219.03 45.54 219.39 C 46.41 219.75 47.81 216.58 47.37 216.15 C 46.94 215.72 43.37 216.26 42.91 216.81 C 42.44 217.36 44.72 219.82 44.58 219.45 C 44.44 219.08 41.77 215.14 42.07 214.6 C 42.38 214.06 46.09 216.21 46.4 216.21" fill="none" stroke="rgb(0, 0, 0)" stroke-width="4" stroke-linejoin="round" stroke-linecap="round" stroke-miterlimit="10" pointer-events="all"/><path d="M 171.77 159.29 C 171.77 159.29 171.77 159.29 171.77 159.29 M 171.77 159.29 C 171.77 159.29 171.77 159.29 171.77 159.29" fill="none" stroke="rgb(0, 0, 0)" stroke-width="2" stroke-linejoin="round" stroke-linecap="round" stroke-miterlimit="10" pointer-events="all"/><path d="M 180.61 166.12 C 175.96 167.98 173.04 165.96 169.83 169.06 M 180.61 166.12 C 177.23 166.45 175.4 167.41 169.83 169.06 M 169.83 169.06 C 171.52 168.98 172.67 167.07 173.26 164.65 M 169.83 169.06 C 170.02 168.64 171.7 167.76 173.26 164.65 M 173.26 164.65 C 172.19 161.86 171.87 161.67 171.79 159.26 M 173.26 164.65 C 172.99 163.49 172.63 161.69 171.79 159.26 M 171.79 159.26 C 175.24 162.4 174.63 160.48 180.61 166.12 M 171.79 159.26 C 173.27 160.24 177.47 162.85 180.61 166.12" fill="none" stroke="rgb(0, 0, 0)" stroke-width="4" stroke-linejoin="round" stroke-linecap="round" stroke-miterlimit="10" pointer-events="all"/></g></g><g data-cell-id="1YbNKV7ilaDfTkEWuPSu-3"><g style="filter: drop-shadow(rgba(0, 0, 0, 0.25) 2px 3px 2px);"><ellipse cx="174.07" cy="169.22" rx="65" ry="60.28" fill="url(#mx-gradient-97d077-1-ffffff-1-r-0)" stroke="none" transform="rotate(90,174.07,169.22)" pointer-events="all"/></g></g><g data-cell-id="1YbNKV7ilaDfTkEWuPSu-2"><g style="filter: drop-shadow(rgba(0, 0, 0, 0.25) 2px 3px 2px);"><ellipse cx="150" cy="89.22" rx="25" ry="72.22" fill="url(#mx-gradient-99ccff-1-ffffff-1-r-0)" stroke="none" transform="rotate(-75,150,89.22)" pointer-events="all"/></g></g><g data-cell-id="1YbNKV7ilaDfTkEWuPSu-28"><g><path d="M 235.8 161.55 Q 125 147 126.6 107.33" fill="none" stroke="none" pointer-events="stroke"/><path d="M 235.8 161.55 C 160.92 150.31 123.35 130.53 126.6 107.33 M 235.8 161.55 C 159.67 151.82 127.13 137.27 126.6 107.33" fill="none" stroke="rgb(0, 0, 0)" stroke-width="4" stroke-linejoin="round" stroke-linecap="round" stroke-miterlimit="10" stroke-dasharray="4 16" pointer-events="stroke"/></g></g><g data-cell-id="1YbNKV7ilaDfTkEWuPSu-27"><g/><g data-cell-id="1YbNKV7ilaDfTkEWuPSu-13"><g><ellipse cx="115.65" cy="32.71" rx="30.64516129032258" ry="14.285714285714286" fill="none" stroke="#ffb570" stroke-width="3" stroke-dasharray="9 9" pointer-events="all"/></g></g><g data-cell-id="1YbNKV7ilaDfTkEWuPSu-14"><g><ellipse cx="189.19" cy="21.29" rx="30.64516129032258" ry="14.285714285714286" fill="none" stroke="#ffb570" stroke-width="3" stroke-dasharray="9 9" pointer-events="all"/></g></g><g data-cell-id="1YbNKV7ilaDfTkEWuPSu-15"><g><ellipse cx="167.74" cy="72.71" rx="33.70967741935484" ry="14.285714285714286" fill="none" stroke="#ffb570" stroke-width="3" stroke-dasharray="9 9" pointer-events="all"/></g></g><g data-cell-id="1YbNKV7ilaDfTkEWuPSu-17"><g><ellipse cx="241.29" cy="55.57" rx="33.70967741935484" ry="14.285714285714286" fill="none" stroke="#ffb570" stroke-width="3" stroke-dasharray="9 9" pointer-events="all"/></g></g><g data-cell-id="1YbNKV7ilaDfTkEWuPSu-18"><g><path d="M 186.78 25.53 L 173.19 65.61" fill="none" stroke="#ffe6cc" stroke-width="4" stroke-miterlimit="10" pointer-events="stroke"/><ellipse cx="189.19" cy="18.43" rx="7.5" ry="7.5" fill="#ffe6cc" stroke="#ffe6cc" stroke-width="4" pointer-events="all"/><ellipse cx="170.78" cy="72.71" rx="7.5" ry="7.5" fill="#ffe6cc" stroke="#ffe6cc" stroke-width="4" pointer-events="all"/></g></g><g data-cell-id="1YbNKV7ilaDfTkEWuPSu-19"><g><path d="M 122.83 31.6 L 233.94 54.08" fill="none" stroke="#ffe6cc" stroke-width="4" stroke-miterlimit="10" pointer-events="stroke"/><ellipse cx="115.48" cy="30.11" rx="7.5" ry="7.5" fill="#ffe6cc" stroke="#ffe6cc" stroke-width="4" pointer-events="all"/><ellipse cx="241.29" cy="55.57" rx="7.5" ry="7.5" fill="#ffe6cc" stroke="#ffe6cc" stroke-width="4" pointer-events="all"/></g></g><g data-cell-id="1YbNKV7ilaDfTkEWuPSu-20"><g><ellipse cx="167.74" cy="72.71" rx="23.75" ry="3.1428571428571432" fill="#ffe6cc" stroke="none" transform="rotate(15,167.74,72.71)" pointer-events="all"/></g></g><g data-cell-id="1YbNKV7ilaDfTkEWuPSu-21"><g><ellipse cx="241.29" cy="55.29" rx="21.451612903225804" ry="3.1428571428571432" fill="#ffe6cc" stroke="none" transform="rotate(-30,241.29,55.29)" pointer-events="all"/></g></g><g data-cell-id="1YbNKV7ilaDfTkEWuPSu-24"><g><ellipse cx="189.19" cy="18.14" rx="23.75" ry="3.1428571428571432" fill="#ffe6cc" stroke="none" pointer-events="all"/></g></g><g data-cell-id="1YbNKV7ilaDfTkEWuPSu-26"><g/></g><g data-cell-id="1YbNKV7ilaDfTkEWuPSu-25"><g><ellipse cx="115.65" cy="30.71" rx="23.75" ry="3.1428571428571432" fill="#ffe6cc" stroke="none" transform="rotate(-15,115.65,30.71)" pointer-events="all"/></g></g></g><g data-cell-id="1YbNKV7ilaDfTkEWuPSu-29"><g style="filter: drop-shadow(rgba(0, 0, 0, 0.25) 2px 3px 2px);"><path d="M 136.71 62.37 Q 155 37 253.08 28.08" fill="none" stroke="none" pointer-events="stroke"/><path d="M 260.55 27.4 L 251.04 33.29 L 253.08 28.08 L 250.13 23.33 Z" fill="none" stroke="none" pointer-events="all"/><path d="M 136.71 62.37 C 147.89 44.59 190.32 36.49 253.08 28.08 M 136.71 62.37 C 153.46 49.29 187.37 31.64 253.08 28.08" fill="none" stroke="rgb(0, 0, 0)" stroke-width="4" stroke-linejoin="round" stroke-linecap="round" stroke-miterlimit="10" stroke-dasharray="4 16" pointer-events="stroke"/><path d="M 250.12 23.34 C 250.12 23.34 250.12 23.34 250.12 23.34 M 250.12 23.34 C 250.12 23.34 250.12 23.34 250.12 23.34" fill="none" stroke="rgb(0, 0, 0)" stroke-width="2" stroke-linejoin="round" stroke-linecap="round" stroke-miterlimit="10" pointer-events="all"/><path d="M 260.55 27.4 C 259.29 31.36 257.16 30.6 251.04 33.29 M 260.55 27.4 C 259.09 28.95 255.47 29.52 251.04 33.29 M 251.04 33.29 C 250.75 31.54 252.19 31.65 253.08 28.08 M 251.04 33.29 C 251.81 32.17 252.32 31.24 253.08 28.08 M 253.08 28.08 C 253.31 26.48 252.06 26.56 250.13 23.33 M 253.08 28.08 C 252.01 26.61 250.75 25.36 250.13 23.33 M 250.13 23.33 C 253.57 25.46 254.17 24.92 260.55 27.4 M 250.13 23.33 C 254.34 24.17 257.77 24.93 260.55 27.4" fill="none" stroke="rgb(0, 0, 0)" stroke-width="4" stroke-linejoin="round" stroke-linecap="round" stroke-miterlimit="10" pointer-events="all"/></g></g></g></g></g></svg>