<?xml version="1.0" encoding="UTF-8"?>
<!DOCTYPE svg PUBLIC "-//W3C//DTD SVG 1.1//EN" "http://www.w3.org/Graphics/SVG/1.1/DTD/svg11.dtd">
<svg xmlns="http://www.w3.org/2000/svg" xmlns:xlink="http://www.w3.org/1999/xlink" version="1.1" width="553" height="514" viewBox="-0.5 -0.5 553 514"><defs><radialGradient x1="0%" y1="0%" x2="0%" y2="0%" id="mx-gradient-ff6666-1-ffffff-1-r-0"><stop offset="0%" style="stop-color: rgb(255, 102, 102); stop-opacity: 1;"/><stop offset="100%" style="stop-color: rgb(255, 255, 255); stop-opacity: 1;"/></radialGradient><radialGradient x1="0%" y1="0%" x2="0%" y2="0%" id="mx-gradient-97d077-1-ffffff-1-r-0"><stop offset="0%" style="stop-color: rgb(151, 208, 119); stop-opacity: 1;"/><stop offset="100%" style="stop-color: rgb(255, 255, 255); stop-opacity: 1;"/></radialGradient><radialGradient x1="0%" y1="0%" x2="0%" y2="0%" id="mx-gradient-99ccff-1-ffffff-1-r-0"><stop offset="0%" style="stop-color: rgb(153, 204, 255); stop-opacity: 1;"/><stop offset="100%" style="stop-color: rgb(255, 255, 255); stop-opacity: 1;"/></radialGradient><filter id="dropShadow"><feGaussianBlur in="SourceAlpha" stdDeviation="1.7" result="blur"/><feOffset in="blur" dx="3" dy="3" result="offsetBlur"/><feFlood flood-color="#3D4574" flood-opacity="0.4" result="offsetColor"/><feComposite in="offsetColor" in2="offsetBlur" operator="in" result="offsetBlur"/><feBlend in="SourceGraphic" in2="offsetBlur"/></filter></defs><g filter="url(#dropShadow)"><g data-cell-id="0"><g data-cell-id="1"><g data-cell-id="1YbNKV7ilaDfTkEWuPSu-30"><g/><g data-cell-id="1YbNKV7ilaDfTkEWuPSu-1"><g style="filter: drop-shadow(rgba(0, 0, 0, 0.25) 2px 3px 2px);"><ellipse cx="178.8" cy="295.41" rx="96.63174997098419" ry="178.22716791720865" fill="url(#mx-gradient-ff6666-1-ffffff-1-r-0)" stroke="none" transform="rotate(-30,178.8,295.41)" pointer-events="all"/></g></g><g data-cell-id="1YbNKV7ilaDfTkEWuPSu-4"><g style="filter: drop-shadow(rgba(0, 0, 0, 0.25) 2px 3px 2px);"><path d="M 82.17 407.08 Q 352.74 407.08 449.37 368.43 Q 546 329.78 488.02 310.45 Q 430.04 291.12 362.4 300.79 Q 294.76 310.45 275.43 300.79 Q 256.1 291.12 341 308.1" fill="none" stroke="none" pointer-events="stroke"/><ellipse cx="82.17" cy="407.08" rx="0" ry="0" fill="none" stroke="none" pointer-events="all"/><path d="M 348.35 309.57 L 337.56 312.52 L 341 308.1 L 339.53 302.71 Z" fill="none" stroke="none" pointer-events="all"/><path d="M 82.17 407.08 C 262.78 404.07 388.91 391.84 449.37 368.43 M 82.17 407.08 C 264.09 405.16 380.47 391.39 449.37 368.43 M 449.37 368.43 C 510.94 339 523.95 322.7 488.02 310.45 M 449.37 368.43 C 513.73 343.01 524.45 322.22 488.02 310.45 M 488.02 310.45 C 450.04 300.46 411.23 298.27 362.4 300.79 M 488.02 310.45 C 450.37 293.13 409.94 295.23 362.4 300.79 M 362.4 300.79 C 314.03 310.71 292.07 310.9 275.43 300.79 M 362.4 300.79 C 320.78 306.88 290.3 305.05 275.43 300.79 M 275.43 300.79 C 259.75 293.28 288.17 293.7 341 308.1 M 275.43 300.79 C 261.77 292.92 284.7 297.19 341 308.1" fill="none" stroke="rgb(0, 0, 0)" stroke-width="4" stroke-linejoin="round" stroke-linecap="round" stroke-miterlimit="10" stroke-dasharray="4 16" pointer-events="stroke"/><path d="M 80.42 405.62 C 80.42 405.62 80.42 405.62 80.42 405.62 M 80.42 405.62 C 80.42 405.62 80.42 405.62 80.42 405.62" fill="none" stroke="rgb(0, 0, 0)" stroke-width="2" stroke-linejoin="round" stroke-linecap="round" stroke-miterlimit="10" pointer-events="all"/><path d="M 80.95 405.66 C 80.78 405.75 80.19 405.49 80.34 405.72 C 80.49 405.95 81.52 406.99 81.85 407.06 C 82.18 407.12 82.35 406.06 82.32 406.12 C 82.29 406.18 81.47 406.95 81.68 407.42 C 81.9 407.89 83.21 408.93 83.61 408.95 C 84.02 408.96 84.69 407.65 84.13 407.52 C 83.57 407.38 80.5 408.49 80.24 408.15 C 79.98 407.8 81.94 405.31 82.55 405.44 C 83.17 405.58 83.67 408.43 83.91 408.96 C 84.15 409.49 84.32 408.76 84 408.59 M 84.99 404.78 C 85.26 404.75 82.1 405.72 81.67 406.15 C 81.23 406.58 82.27 407.69 82.36 407.35 C 82.45 407.02 82.73 404.69 82.22 404.14 C 81.71 403.6 79.23 403.2 79.31 404.09 C 79.39 404.98 81.83 409.12 82.7 409.47 C 83.58 409.83 84.98 406.66 84.54 406.23 C 84.1 405.8 80.54 406.34 80.07 406.89 C 79.61 407.44 81.88 409.9 81.74 409.53 C 81.61 409.16 78.94 405.22 79.24 404.68 C 79.55 404.14 83.26 406.29 83.57 406.29" fill="none" stroke="rgb(0, 0, 0)" stroke-width="4" stroke-linejoin="round" stroke-linecap="round" stroke-miterlimit="10" pointer-events="all"/><path d="M 339.75 302.45 C 339.75 302.45 339.75 302.45 339.75 302.45 M 339.75 302.45 C 339.75 302.45 339.75 302.45 339.75 302.45" fill="none" stroke="rgb(0, 0, 0)" stroke-width="2" stroke-linejoin="round" stroke-linecap="round" stroke-miterlimit="10" pointer-events="all"/><path d="M 348.35 309.57 C 343.69 311.44 340.77 309.41 337.56 312.52 M 348.35 309.57 C 344.97 309.9 343.14 310.87 337.56 312.52 M 337.56 312.52 C 339.26 312.44 340.41 310.53 341 308.1 M 337.56 312.52 C 337.75 312.09 339.44 311.22 341 308.1 M 341 308.1 C 339.93 305.31 339.61 305.12 339.53 302.71 M 341 308.1 C 340.73 306.94 340.37 305.14 339.53 302.71 M 339.53 302.71 C 342.98 305.85 342.37 303.93 348.35 309.57 M 339.53 302.71 C 341.01 303.69 345.21 306.3 348.35 309.57" fill="none" stroke="rgb(0, 0, 0)" stroke-width="4" stroke-linejoin="round" stroke-linecap="round" stroke-miterlimit="10" pointer-events="all"/></g></g><g data-cell-id="1YbNKV7ilaDfTkEWuPSu-3"><g style="filter: drop-shadow(rgba(0, 0, 0, 0.25) 2px 3px 2px);"><ellipse cx="331.61" cy="314.74" rx="125.62127496227944" ry="116.49895556331963" fill="url(#mx-gradient-97d077-1-ffffff-1-r-0)" stroke="none" transform="rotate(90,331.61,314.74)" pointer-events="all"/></g></g><g data-cell-id="1YbNKV7ilaDfTkEWuPSu-2"><g style="filter: drop-shadow(rgba(0, 0, 0, 0.25) 2px 3px 2px);"><ellipse cx="285.09" cy="160.13" rx="48.315874985492094" ry="139.57456155910657" fill="url(#mx-gradient-99ccff-1-ffffff-1-r-0)" stroke="none" transform="rotate(-75,285.09,160.13)" pointer-events="all"/></g></g><g data-cell-id="1YbNKV7ilaDfTkEWuPSu-28"><g><path d="M 450.91 299.92 Q 236.78 271.8 239.88 195.13" fill="none" stroke="none" pointer-events="stroke"/><path d="M 450.91 299.92 C 307.15 279.63 235.63 243 239.88 195.13 M 450.91 299.92 C 305.89 281.14 239.41 249.74 239.88 195.13" fill="none" stroke="rgb(0, 0, 0)" stroke-width="4" stroke-linejoin="round" stroke-linecap="round" stroke-miterlimit="10" stroke-dasharray="4 16" pointer-events="stroke"/></g></g><g data-cell-id="1YbNKV7ilaDfTkEWuPSu-27"><g/><g data-cell-id="1YbNKV7ilaDfTkEWuPSu-13"><g><ellipse cx="218.7" cy="50.93" rx="59.225911272538696" ry="27.60900454150148" fill="none" stroke="#ffb570" stroke-width="3" stroke-dasharray="9 9" pointer-events="all"/></g></g><g data-cell-id="1YbNKV7ilaDfTkEWuPSu-14"><g><ellipse cx="360.84" cy="28.84" rx="59.225911272538696" ry="27.60900454150148" fill="none" stroke="#ffb570" stroke-width="3" stroke-dasharray="9 9" pointer-events="all"/></g></g><g data-cell-id="1YbNKV7ilaDfTkEWuPSu-15"><g><ellipse cx="319.38" cy="128.23" rx="65.14850239979256" ry="27.60900454150148" fill="none" stroke="#ffb570" stroke-width="3" stroke-dasharray="9 9" pointer-events="all"/></g></g><g data-cell-id="1YbNKV7ilaDfTkEWuPSu-17"><g><ellipse cx="461.53" cy="95.1" rx="65.14850239979256" ry="27.60900454150148" fill="none" stroke="#ffb570" stroke-width="3" stroke-dasharray="9 9" pointer-events="all"/></g></g><g data-cell-id="1YbNKV7ilaDfTkEWuPSu-18"><g><path d="M 358.43 30.42 L 327.66 121.13" fill="none" stroke="#ffe6cc" stroke-width="4" stroke-miterlimit="10" pointer-events="stroke"/><ellipse cx="360.84" cy="23.32" rx="7.5" ry="7.5" fill="#ffe6cc" stroke="#ffe6cc" stroke-width="4" pointer-events="all"/><ellipse cx="325.25" cy="128.23" rx="7.5" ry="7.5" fill="#ffe6cc" stroke="#ffe6cc" stroke-width="4" pointer-events="all"/></g></g><g data-cell-id="1YbNKV7ilaDfTkEWuPSu-19"><g><path d="M 225.74 47.38 L 454.17 93.61" fill="none" stroke="#ffe6cc" stroke-width="4" stroke-miterlimit="10" pointer-events="stroke"/><ellipse cx="218.38" cy="45.89" rx="7.5" ry="7.5" fill="#ffe6cc" stroke="#ffe6cc" stroke-width="4" pointer-events="all"/><ellipse cx="461.53" cy="95.1" rx="7.5" ry="7.5" fill="#ffe6cc" stroke="#ffe6cc" stroke-width="4" pointer-events="all"/></g></g><g data-cell-id="1YbNKV7ilaDfTkEWuPSu-20"><g><ellipse cx="319.38" cy="128.23" rx="45.90008123621749" ry="6.073980999130326" fill="#ffe6cc" stroke="none" transform="rotate(15,319.38,128.23)" pointer-events="all"/></g></g><g data-cell-id="1YbNKV7ilaDfTkEWuPSu-21"><g><ellipse cx="461.53" cy="94.55" rx="41.45813789077708" ry="6.073980999130326" fill="#ffe6cc" stroke="none" transform="rotate(-30,461.53,94.55)" pointer-events="all"/></g></g><g data-cell-id="1YbNKV7ilaDfTkEWuPSu-24"><g><ellipse cx="360.84" cy="22.77" rx="45.90008123621749" ry="6.073980999130326" fill="#ffe6cc" stroke="none" pointer-events="all"/></g></g><g data-cell-id="1YbNKV7ilaDfTkEWuPSu-26"><g><path d="M 218.7 52.9 L 218.7 54.56" fill="none" stroke="rgb(0, 0, 0)" stroke-width="4" stroke-miterlimit="10" pointer-events="stroke"/><ellipse cx="218.7" cy="45.4" rx="7.5" ry="7.5" fill="rgb(0, 0, 0)" stroke="rgb(0, 0, 0)" stroke-width="4" pointer-events="all"/><ellipse cx="218.7" cy="47.06" rx="7.5" ry="7.5" fill="rgb(0, 0, 0)" stroke="rgb(0, 0, 0)" stroke-width="4" pointer-events="all"/></g></g><g data-cell-id="1YbNKV7ilaDfTkEWuPSu-25"><g><ellipse cx="218.7" cy="47.06" rx="45.90008123621749" ry="6.073980999130326" fill="#ffe6cc" stroke="none" transform="rotate(-15,218.7,47.06)" pointer-events="all"/></g></g></g><g data-cell-id="1YbNKV7ilaDfTkEWuPSu-29"><g style="filter: drop-shadow(rgba(0, 0, 0, 0.25) 2px 3px 2px);"><path d="M 259.41 108.23 Q 294.76 59.21 495.42 40.97" fill="none" stroke="none" pointer-events="stroke"/><path d="M 502.89 40.29 L 493.39 46.17 L 495.42 40.97 L 492.48 36.21 Z" fill="none" stroke="none" pointer-events="all"/><path d="M 259.41 108.23 C 281.97 74.69 364.27 55.6 495.42 40.97 M 259.41 108.23 C 287.53 79.38 361.32 50.74 495.42 40.97" fill="none" stroke="rgb(0, 0, 0)" stroke-width="4" stroke-linejoin="round" stroke-linecap="round" stroke-miterlimit="10" stroke-dasharray="4 16" pointer-events="stroke"/><path d="M 492.39 36.31 C 492.39 36.31 492.39 36.31 492.39 36.31 M 492.39 36.31 C 492.39 36.31 492.39 36.31 492.39 36.31" fill="none" stroke="rgb(0, 0, 0)" stroke-width="2" stroke-linejoin="round" stroke-linecap="round" stroke-miterlimit="10" pointer-events="all"/><path d="M 502.89 40.29 C 501.63 44.24 499.51 43.49 493.39 46.17 M 502.89 40.29 C 501.43 41.84 497.82 42.4 493.39 46.17 M 493.39 46.17 C 493.1 44.42 494.53 44.54 495.42 40.97 M 493.39 46.17 C 494.15 45.05 494.66 44.12 495.42 40.97 M 495.42 40.97 C 495.65 39.37 494.41 39.44 492.48 36.21 M 495.42 40.97 C 494.35 39.5 493.1 38.25 492.48 36.21 M 492.48 36.21 C 495.92 38.34 496.51 37.81 502.89 40.29 M 492.48 36.21 C 496.69 37.05 500.11 37.82 502.89 40.29" fill="none" stroke="rgb(0, 0, 0)" stroke-width="4" stroke-linejoin="round" stroke-linecap="round" stroke-miterlimit="10" pointer-events="all"/></g></g></g></g></g></g></svg>